# xmcd
#
# Track frame offsets:
# 150
# 19940
# 40471
# 58898
# 81948
# 98045
# 115036
# 136298
# 152934
# 172323
# 190724
# 206296
# 231335
#
# Disc length: 3352 seconds
#
# Revision: 0
# Processed by: cddbd v1.5.2PL0 Copyright (c) Steve Scherf et al.
# Submitted via: Axialis_AX_CDPlayer 2.6
#
DISCID=b40d160d
DTITLE=Emmylou Harris - All I Intended To Be
DYEAR=1900
DGENRE=
TTITLE0=Shores Of White Sand
TTITLE1=Hold On
TTITLE2=Moon Song
TTITLE3=Broken Man's Lament
TTITLE4=Gold
TTITLE5=How She Could Sing The Wildwood Flower
TTITLE6=All That You Have Is Your Soul
TTITLE7=Take That Ride
TTITLE8=Old Five And Dimers Like Me
TTITLE9=Kern River
TTITLE10=Not Enough
TTITLE11=Sailing Round The Room
TTITLE12=Beyond The Great Divide
EXTD=www.emmylou.net
EXTT0=
EXTT1=
EXTT2=
EXTT3=
EXTT4=
EXTT5=
EXTT6=
EXTT7=
EXTT8=
EXTT9=
EXTT10=
EXTT11=
EXTT12=
PLAYORDER=
